<?xml version="1.0" encoding="UTF-8" standalone="no"?>
<svg
   xmlns:dc="http://purl.org/dc/elements/1.1/"
   xmlns:cc="http://creativecommons.org/ns#"
   xmlns:rdf="http://www.w3.org/1999/02/22-rdf-syntax-ns#"
   xmlns:svg="http://www.w3.org/2000/svg"
   xmlns="http://www.w3.org/2000/svg"
   xmlns:sodipodi="http://sodipodi.sourceforge.net/DTD/sodipodi-0.dtd"
   xmlns:inkscape="http://www.inkscape.org/namespaces/inkscape"
   version="1.1"
   width="32"
   height="32"
   viewBox="0 0 32 32"
   id="svg6"
   sodipodi:docname="icon-lupa.svg"
   inkscape:version="1.0.1 (3bc2e813f5, 2020-09-07)">
  <metadata
     id="metadata12">
    <rdf:RDF>
      <cc:Work
         rdf:about="">
        <dc:format>image/svg+xml</dc:format>
        <dc:type
           rdf:resource="http://purl.org/dc/dcmitype/StillImage" />
      </cc:Work>
    </rdf:RDF>
  </metadata>
  <defs
     id="defs10" />
  <sodipodi:namedview
     pagecolor="#ffffff"
     bordercolor="#666666"
     borderopacity="1"
     objecttolerance="10"
     gridtolerance="10"
     guidetolerance="10"
     inkscape:pageopacity="0"
     inkscape:pageshadow="2"
     inkscape:window-width="1600"
     inkscape:window-height="837"
     id="namedview8"
     showgrid="false"
     inkscape:zoom="16.8125"
     inkscape:cx="16"
     inkscape:cy="16"
     inkscape:window-x="-8"
     inkscape:window-y="-8"
     inkscape:window-maximized="1"
     inkscape:current-layer="svg6" />
  <title
     id="title2">search</title>
  <path
     d="m 19.822412,18.096106 c 0.238117,0.23813 0.238117,0.624389 0,0.863142 l -0.863164,0.86316 c -0.238758,0.238123 -0.625014,0.238123 -0.863138,0 L 12.053458,13.779742 C 11.987828,13.714126 11.944074,13.636611 11.914696,13.55411 10.675279,14.45976 9.1533606,15.000402 7.5002051,15.000402 3.3582151,15.000402 0,11.642186 0,7.500202 0,3.358214 3.3582151,0 7.5002051,0 c 4.1419829,0 7.5002029,3.358214 7.5002029,7.500202 0,1.6531627 -0.540637,3.175079 -1.446289,4.414494 0.08255,0.02935 0.160003,0.07253 0.225633,0.138753 z M 7.5002051,2.5000669 c -2.761329,0 -5.0001375,2.2388084 -5.0001375,5.0001351 0,2.761326 2.2388085,5.000124 5.0001375,5.000124 2.7613249,0 5.0001199,-2.238798 5.0001199,-5.000124 0,-2.7613267 -2.238795,-5.0001351 -5.0001199,-5.0001351 z"
     id="path4"
     style="stroke-width:0.625018" />
</svg>
