<?xml version="1.0" encoding="UTF-8" standalone="no"?>
<svg
   xmlns:dc="http://purl.org/dc/elements/1.1/"
   xmlns:cc="http://creativecommons.org/ns#"
   xmlns:rdf="http://www.w3.org/1999/02/22-rdf-syntax-ns#"
   xmlns:svg="http://www.w3.org/2000/svg"
   xmlns="http://www.w3.org/2000/svg"
   xmlns:sodipodi="http://sodipodi.sourceforge.net/DTD/sodipodi-0.dtd"
   xmlns:inkscape="http://www.inkscape.org/namespaces/inkscape"
   width="65.337616mm"
   height="7.8885341mm"
   viewBox="0 0 65.337616 7.8885341"
   version="1.1"
   id="svg8"
   inkscape:version="1.0.1 (3bc2e813f5, 2020-09-07)"
   sodipodi:docname="desenhando.svg">
  <defs
     id="defs2">
    <clipPath
       id="clipPath18"
       clipPathUnits="userSpaceOnUse">
      <path
         id="path16"
         d="M 0,595.28 H 841.89 V 0 H 0 Z" />
    </clipPath>
  </defs>
  <sodipodi:namedview
     id="base"
     pagecolor="#ffffff"
     bordercolor="#666666"
     borderopacity="1.0"
     inkscape:pageopacity="0.0"
     inkscape:pageshadow="2"
     inkscape:zoom="0.35"
     inkscape:cx="89.186951"
     inkscape:cy="-5.0925519"
     inkscape:document-units="mm"
     inkscape:current-layer="layer1"
     inkscape:document-rotation="0"
     showgrid="false"
     inkscape:window-width="1366"
     inkscape:window-height="728"
     inkscape:window-x="1366"
     inkscape:window-y="0"
     inkscape:window-maximized="0" />
  <metadata
     id="metadata5">
    <rdf:RDF>
      <cc:Work
         rdf:about="">
        <dc:format>image/svg+xml</dc:format>
        <dc:type
           rdf:resource="http://purl.org/dc/dcmitype/StillImage" />
        <dc:title></dc:title>
      </cc:Work>
    </rdf:RDF>
  </metadata>
  <g
     inkscape:label="Layer 1"
     inkscape:groupmode="layer"
     id="layer1"
     transform="translate(-82.235953,-149.51407)">
    <g
       id="g437">
      <g
         clip-path="url(#clipPath18)"
         id="g14"
         transform="matrix(0.35277777,0,0,-0.35277777,-33.657013,258.36277)">
        <g
           transform="translate(328.5825,302.6821)"
           id="g20">
          <path
             id="path22"
             style="fill:#231f20;fill-opacity:1;fill-rule:nonzero;stroke:none"
             d="m 0,0 c 0,0.66 -0.032,1.18 -0.067,1.695 h 1.295 l 0.07,-1.008 h 0.047 c 0.454,0.592 1.213,1.149 2.572,1.149 1.093,0 1.931,-0.518 2.285,-1.252 h 0.032 c 0.255,0.361 0.589,0.618 0.923,0.813 0.489,0.286 1.011,0.439 1.784,0.439 1.09,0 2.687,-0.543 2.687,-2.713 v -3.684 h -1.447 v 3.542 C 10.181,0.196 9.595,0.906 8.42,0.906 7.562,0.906 6.923,0.429 6.656,-0.116 6.589,-0.283 6.536,-0.49 6.536,-0.684 V -4.561 H 5.092 v 3.748 C 5.092,0.196 4.523,0.906 3.396,0.906 2.49,0.906 1.799,0.338 1.564,-0.232 1.479,-0.398 1.447,-0.593 1.447,-0.785 V -4.561 H 0 Z" />
        </g>
        <path
           id="path24"
           style="fill:#231f20;fill-opacity:1;fill-rule:nonzero;stroke:none"
           d="m 342.595,304.377 h 1.479 v -6.256 h -1.479 z m 0.706,1.15 c -0.553,0 -0.926,0.337 -0.926,0.736 0,0.403 0.387,0.726 0.958,0.726 0.575,0 0.941,-0.323 0.941,-0.726 0,-0.399 -0.366,-0.736 -0.955,-0.736 z" />
        <g
           transform="translate(352.0024,301.9214)"
           id="g26">
          <path
             id="path28"
             style="fill:#231f20;fill-opacity:1;fill-rule:nonzero;stroke:none"
             d="m 0,0 c 0,0.181 -0.015,0.349 -0.085,0.503 -0.267,0.674 -0.973,1.215 -2.065,1.215 -1.41,0 -2.42,-0.918 -2.42,-2.379 0,-1.214 0.826,-2.245 2.405,-2.245 0.926,0 1.746,0.438 2.048,1.174 C -0.032,-1.55 0,-1.33 0,-1.125 Z m 1.479,-2.882 c 0,-1.45 -0.386,-2.313 -1.157,-2.87 -0.808,-0.555 -1.948,-0.747 -2.973,-0.747 -0.979,0 -2.051,0.178 -2.707,0.516 l 0.369,0.878 c 0.539,-0.269 1.38,-0.505 2.385,-0.505 1.514,0 2.625,0.609 2.625,2.197 v 0.687 h -0.036 c -0.436,-0.584 -1.33,-1.047 -2.589,-1.047 -2.013,0 -3.46,1.318 -3.46,3.061 0,2.12 1.798,3.309 3.679,3.309 1.412,0 2.168,-0.557 2.537,-1.073 H 0.188 L 0.234,2.456 H 1.547 C 1.494,2.018 1.479,1.512 1.479,0.749 Z" />
        </g>
        <g
           transform="translate(362.7222,299.8267)"
           id="g30">
          <path
             id="path32"
             style="fill:#231f20;fill-opacity:1;fill-rule:nonzero;stroke:none"
             d="m 0,0 c 0,-0.645 0.018,-1.215 0.067,-1.705 h -1.309 l -0.088,1.022 h -0.032 c -0.369,-0.506 -1.242,-1.164 -2.687,-1.164 -1.277,0 -2.806,0.555 -2.806,2.741 v 3.657 h 1.479 V 1.099 c 0,-1.189 0.486,-2.004 1.813,-2.004 0.994,0 1.682,0.532 1.952,1.047 0.082,0.155 0.134,0.365 0.134,0.583 V 4.551 H 0 Z" />
        </g>
        <g
           transform="translate(370.3335,301.8696)"
           id="g34">
          <path
             id="path36"
             style="fill:#231f20;fill-opacity:1;fill-rule:nonzero;stroke:none"
             d="M 0,0 C 0.015,0.709 -0.387,1.848 -2.033,1.848 -3.545,1.848 -4.184,0.786 -4.304,0 Z m -4.318,-0.816 c 0.032,-1.537 1.295,-2.17 2.774,-2.17 1.058,0 1.711,0.144 2.25,0.312 l 0.267,-0.804 c -0.522,-0.179 -1.427,-0.399 -2.719,-0.399 -2.49,0 -3.999,1.28 -3.999,3.152 0,1.902 1.459,3.386 3.829,3.386 2.654,0 3.343,-1.794 3.343,-2.948 0,-0.231 -0.015,-0.411 -0.047,-0.54 z" />
        </g>
        <path
           id="path38"
           style="fill:#231f20;fill-opacity:1;fill-rule:nonzero;stroke:none"
           d="m 373.591,307.297 h 1.479 v -9.176 h -1.479 z" />
        <g
           transform="translate(402.7563,300.6675)"
           id="g40">
          <path
             id="path42"
             style="fill:#231f20;fill-opacity:1;fill-rule:nonzero;stroke:none"
             d="m 0,0 c 0,-0.153 0.015,-0.322 0.067,-0.464 0.252,-0.789 1.158,-1.33 2.198,-1.33 1.564,0 2.472,0.979 2.472,2.414 0,1.253 -0.841,2.326 -2.405,2.326 C 1.327,2.946 0.369,2.405 0.085,1.551 0.053,1.396 0,1.229 0,1.086 Z m -1.479,1.667 c 0,0.803 -0.015,1.446 -0.068,2.043 H -0.22 L -0.135,2.636 H -0.1 c 0.586,0.776 1.559,1.215 2.871,1.215 1.981,0 3.46,-1.279 3.46,-3.18 0,-2.246 -1.795,-3.359 -3.694,-3.359 -1.093,0 -2.018,0.362 -2.505,0.98 H 0 v -3.394 h -1.479 z" />
        </g>
        <path
           id="path44"
           style="fill:#231f20;fill-opacity:1;fill-rule:nonzero;stroke:none"
           d="m 410.839,304.377 h 1.477 v -6.256 h -1.477 z m 0.703,1.15 c -0.556,0 -0.922,0.337 -0.922,0.736 0,0.403 0.386,0.726 0.958,0.726 0.568,0 0.94,-0.323 0.94,-0.726 0,-0.399 -0.372,-0.736 -0.961,-0.736 z" />
        <g
           transform="translate(414.7681,302.6821)"
           id="g46">
          <path
             id="path48"
             style="fill:#231f20;fill-opacity:1;fill-rule:nonzero;stroke:none"
             d="M 0,0 C 0,0.66 -0.018,1.18 -0.067,1.695 H 1.242 L 1.327,0.674 h 0.032 c 0.402,0.583 1.345,1.162 2.69,1.162 1.125,0 2.871,-0.518 2.871,-2.661 V -4.561 H 5.443 v 3.606 c 0,1.01 -0.489,1.861 -1.883,1.861 -0.958,0 -1.711,-0.529 -1.981,-1.164 -0.067,-0.14 -0.1,-0.347 -0.1,-0.527 V -4.561 H 0 Z" />
        </g>
        <g
           transform="translate(425.8066,305.8774)"
           id="g50">
          <path
             id="path52"
             style="fill:#231f20;fill-opacity:1;fill-rule:nonzero;stroke:none"
             d="M 0,0 V -1.5 H 2.115 V -2.367 H 0 v -3.37 c 0,-0.779 0.285,-1.219 1.111,-1.219 0.401,0 0.635,0.029 0.852,0.077 L 2.031,-7.742 C 1.746,-7.82 1.293,-7.897 0.725,-7.897 c -0.692,0 -1.246,0.18 -1.598,0.477 -0.404,0.348 -0.57,0.904 -0.57,1.643 v 3.41 H -2.707 V -1.5 h 1.264 v 1.149 z" />
        </g>
        <g
           transform="translate(432.8496,298.8296)"
           id="g54">
          <path
             id="path56"
             style="fill:#231f20;fill-opacity:1;fill-rule:nonzero;stroke:none"
             d="m 0,0 c 1.412,0 2.467,1.022 2.467,2.444 0,1.061 -0.688,2.391 -2.434,2.391 -1.732,0 -2.488,-1.24 -2.488,-2.429 C -2.455,1.036 -1.443,0 -0.018,0 Z m -0.053,-0.85 c -2.185,0 -3.898,1.242 -3.898,3.216 0,2.095 1.799,3.322 4.033,3.322 C 2.418,5.688 4,4.384 4,2.482 4,0.159 1.898,-0.85 -0.035,-0.85 Z" />
        </g>
        <g
           transform="translate(447.75,301.9214)"
           id="g58">
          <path
             id="path60"
             style="fill:#231f20;fill-opacity:1;fill-rule:nonzero;stroke:none"
             d="m 0,0 c 0,0.181 -0.014,0.349 -0.082,0.503 -0.272,0.674 -0.979,1.215 -2.07,1.215 -1.411,0 -2.418,-0.918 -2.418,-2.379 0,-1.214 0.824,-2.245 2.402,-2.245 0.926,0 1.746,0.438 2.049,1.174 C -0.035,-1.55 0,-1.33 0,-1.125 Z m 1.48,-2.882 c 0,-1.45 -0.39,-2.313 -1.16,-2.87 -0.806,-0.555 -1.949,-0.747 -2.974,-0.747 -0.973,0 -2.051,0.178 -2.703,0.516 l 0.365,0.878 c 0.539,-0.269 1.381,-0.505 2.388,-0.505 1.512,0 2.622,0.609 2.622,2.197 v 0.687 h -0.032 c -0.439,-0.584 -1.334,-1.047 -2.59,-1.047 -2.015,0 -3.46,1.318 -3.46,3.061 0,2.12 1.796,3.309 3.677,3.309 1.412,0 2.168,-0.557 2.539,-1.073 H 0.186 L 0.232,2.456 H 1.545 C 1.498,2.018 1.48,1.512 1.48,0.749 Z" />
        </g>
        <g
           transform="translate(458.4707,299.8267)"
           id="g62">
          <path
             id="path64"
             style="fill:#231f20;fill-opacity:1;fill-rule:nonzero;stroke:none"
             d="m 0,0 c 0,-0.645 0.014,-1.215 0.066,-1.705 h -1.312 l -0.082,1.022 h -0.037 c -0.367,-0.506 -1.242,-1.164 -2.688,-1.164 -1.277,0 -2.802,0.555 -2.802,2.741 v 3.657 h 1.476 V 1.099 c 0,-1.189 0.488,-2.004 1.813,-2.004 0.994,0 1.681,0.532 1.951,1.047 0.082,0.155 0.135,0.365 0.135,0.583 V 4.551 H 0 Z" />
        </g>
        <path
           id="path66"
           style="fill:#231f20;fill-opacity:1;fill-rule:nonzero;stroke:none"
           d="m 460.922,304.377 h 1.48 v -6.256 h -1.48 z m 0.707,1.15 c -0.555,0 -0.926,0.337 -0.926,0.736 0,0.403 0.387,0.726 0.957,0.726 0.569,0 0.942,-0.323 0.942,-0.726 0,-0.399 -0.373,-0.736 -0.959,-0.736 z" />
        <g
           transform="translate(464.8535,302.6821)"
           id="g68">
          <path
             id="path70"
             style="fill:#231f20;fill-opacity:1;fill-rule:nonzero;stroke:none"
             d="M 0,0 C 0,0.66 -0.035,1.18 -0.066,1.695 H 1.225 L 1.293,0.687 h 0.053 c 0.451,0.592 1.207,1.149 2.566,1.149 1.092,0 1.934,-0.518 2.285,-1.252 h 0.035 c 0.252,0.361 0.586,0.618 0.922,0.813 0.491,0.286 1.008,0.439 1.782,0.439 1.093,0 2.689,-0.543 2.689,-2.713 v -3.684 h -1.443 v 3.542 C 10.182,0.196 9.59,0.906 8.414,0.906 7.559,0.906 6.92,0.429 6.65,-0.116 6.584,-0.283 6.533,-0.49 6.533,-0.684 V -4.561 H 5.09 v 3.748 C 5.09,0.196 4.518,0.906 3.393,0.906 2.484,0.906 1.797,0.338 1.559,-0.232 1.477,-0.398 1.445,-0.593 1.445,-0.785 V -4.561 H 0 Z" />
        </g>
        <g
           transform="translate(483.1504,301.312)"
           id="g72">
          <path
             id="path74"
             style="fill:#231f20;fill-opacity:1;fill-rule:nonzero;stroke:none"
             d="m 0,0 c -1.611,0.026 -3.445,-0.193 -3.445,-1.407 0,-0.748 0.634,-1.086 1.377,-1.086 1.074,0 1.763,0.518 1.998,1.047 C -0.018,-1.33 0,-1.201 0,-1.085 Z m 1.441,-1.692 c 0,-0.541 0.036,-1.073 0.12,-1.498 H 0.234 L 0.1,-2.401 H 0.049 c -0.436,-0.493 -1.33,-0.931 -2.487,-0.931 -1.646,0 -2.488,0.894 -2.488,1.796 0,1.512 1.75,2.339 4.887,2.326 v 0.129 c 0,0.52 -0.182,1.46 -1.846,1.447 -0.773,0 -1.56,-0.168 -2.133,-0.465 l -0.339,0.762 c 0.673,0.325 1.664,0.543 2.693,0.543 2.502,0 3.105,-1.305 3.105,-2.557 z" />
        </g>
        <g
           transform="translate(486.9766,302.4243)"
           id="g76">
          <path
             id="path78"
             style="fill:#231f20;fill-opacity:1;fill-rule:nonzero;stroke:none"
             d="m 0,0 c 0,0.738 -0.016,1.369 -0.068,1.953 h 1.295 l 0.07,-1.228 h 0.047 c 0.373,0.838 1.277,1.369 2.273,1.369 0.147,0 0.268,-0.012 0.399,-0.037 V 0.996 C 3.85,1.009 3.699,1.021 3.498,1.021 2.457,1.021 1.717,0.415 1.512,-0.426 1.479,-0.592 1.465,-0.773 1.465,-0.971 v -3.332 h -1.481 z" />
        </g>
        <g
           transform="translate(496.7383,301.312)"
           id="g80">
          <path
             id="path82"
             style="fill:#231f20;fill-opacity:1;fill-rule:nonzero;stroke:none"
             d="m 0,0 c -1.611,0.026 -3.445,-0.193 -3.445,-1.407 0,-0.748 0.64,-1.086 1.379,-1.086 1.072,0 1.767,0.518 1.998,1.047 C -0.016,-1.33 0,-1.201 0,-1.085 Z m -3.561,4.061 c 0,0.375 0.082,0.697 0.268,0.915 0.201,0.233 0.475,0.378 0.826,0.378 0.401,0 0.674,-0.128 1.074,-0.3 0.252,-0.116 0.485,-0.22 0.754,-0.22 0.252,0 0.405,0.117 0.44,0.543 H 0.539 C 0.553,4.589 0.205,4.138 -0.59,4.138 c -0.365,0 -0.685,0.129 -1.021,0.285 -0.334,0.142 -0.537,0.217 -0.756,0.217 -0.252,0 -0.404,-0.217 -0.438,-0.579 z m 5.008,-5.753 c 0,-0.541 0.032,-1.073 0.117,-1.498 H 0.236 L 0.102,-2.401 H 0.053 c -0.44,-0.493 -1.328,-0.931 -2.489,-0.931 -1.646,0 -2.484,0.894 -2.484,1.796 0,1.512 1.746,2.339 4.887,2.326 v 0.129 c 0,0.52 -0.188,1.46 -1.848,1.447 -0.771,0 -1.564,-0.168 -2.133,-0.465 l -0.338,0.762 c 0.672,0.325 1.664,0.543 2.69,0.543 2.502,0 3.109,-1.305 3.109,-2.557 z" />
        </g>
        <g
           transform="translate(505.7109,301.8696)"
           id="g84">
          <path
             id="path86"
             style="fill:#231f20;fill-opacity:1;fill-rule:nonzero;stroke:none"
             d="M 0,0 C 0.016,0.709 -0.387,1.848 -2.033,1.848 -3.545,1.848 -4.184,0.786 -4.301,0 Z m -4.318,-0.816 c 0.035,-1.537 1.295,-2.17 2.771,-2.17 1.061,0 1.715,0.144 2.254,0.312 l 0.266,-0.804 c -0.518,-0.179 -1.426,-0.399 -2.721,-0.399 -2.484,0 -4,1.28 -4,3.152 0,1.902 1.465,3.386 3.83,3.386 2.656,0 3.346,-1.794 3.346,-2.948 0,-0.231 -0.018,-0.411 -0.053,-0.54 z" />
        </g>
        <g
           transform="translate(508.7695,299.2729)"
           id="g88">
          <path
             id="path90"
             style="fill:#231f20;fill-opacity:1;fill-rule:nonzero;stroke:none"
             d="m 0,0 c 0.455,-0.209 1.225,-0.443 1.967,-0.443 1.054,0 1.56,0.403 1.56,0.932 0,0.545 -0.422,0.84 -1.494,1.152 -1.478,0.411 -2.17,1.02 -2.17,1.768 0,1.009 1.075,1.836 2.803,1.836 0.826,0 1.547,-0.166 1.986,-0.389 L 4.299,4.044 C 3.979,4.187 3.393,4.405 2.635,4.405 1.762,4.405 1.293,4.018 1.293,3.554 1.293,3.022 1.762,2.791 2.818,2.48 4.213,2.079 4.955,1.536 4.955,0.593 c 0,-1.113 -1.129,-1.886 -3.027,-1.886 -0.887,0 -1.713,0.181 -2.282,0.439 z" />
        </g>
        <g
           transform="translate(352.2896,287.9053)"
           id="g92">
          <path
             id="path94"
             style="fill:#231f20;fill-opacity:1;fill-rule:nonzero;stroke:none"
             d="M 0,0 -0.58,1.289 -1.137,0 Z M 1.541,-1.371 H 0.639 l -0.358,0.785 h -1.673 l -0.342,-0.785 h -0.9 l 1.6,3.475 h 0.899 z" />
        </g>
        <g
           transform="translate(358.2866,288.5381)"
           id="g96">
          <path
             id="path98"
             style="fill:#231f20;fill-opacity:1;fill-rule:nonzero;stroke:none"
             d="m 0,0 h 0.621 c 0.404,0 0.656,0.012 0.756,0.041 0.1,0.029 0.176,0.078 0.234,0.148 0.056,0.069 0.085,0.157 0.085,0.262 0,0.117 -0.035,0.211 -0.114,0.283 C 1.509,0.807 1.403,0.85 1.266,0.871 1.198,0.877 0.996,0.883 0.656,0.883 H 0 Z M -0.838,-2.004 V 1.471 H 0.929 C 1.374,1.471 1.696,1.438 1.896,1.377 2.098,1.313 2.259,1.201 2.379,1.043 2.502,0.883 2.558,0.699 2.558,0.496 2.558,0.234 2.47,0.02 2.285,-0.152 2.104,-0.318 1.831,-0.426 1.468,-0.471 1.646,-0.561 1.799,-0.656 1.913,-0.764 2.03,-0.867 2.191,-1.059 2.388,-1.328 L 2.897,-2.004 H 1.893 l -0.601,0.756 c -0.217,0.271 -0.363,0.439 -0.445,0.51 -0.076,0.07 -0.161,0.119 -0.249,0.146 -0.091,0.024 -0.235,0.037 -0.428,0.037 H 0 v -1.449 z" />
        </g>
        <g
           transform="translate(367.4888,287.3643)"
           id="g100">
          <path
             id="path102"
             style="fill:#231f20;fill-opacity:1;fill-rule:nonzero;stroke:none"
             d="m 0,0 c 0.111,0.107 0.193,0.236 0.246,0.389 0.056,0.148 0.082,0.322 0.082,0.517 0,0.403 -0.108,0.703 -0.316,0.903 -0.214,0.199 -0.492,0.295 -0.835,0.295 -0.346,0 -0.621,-0.1 -0.835,-0.295 -0.211,-0.204 -0.32,-0.502 -0.32,-0.903 0,-0.408 0.109,-0.715 0.32,-0.916 0.214,-0.203 0.48,-0.303 0.805,-0.303 0.124,0 0.241,0.016 0.346,0.049 -0.17,0.094 -0.346,0.168 -0.518,0.219 l 0.234,0.406 C -0.513,0.281 -0.252,0.162 0,0 m 0.677,-0.383 c 0.205,-0.123 0.43,-0.219 0.671,-0.293 L 1.04,-1.178 c -0.126,0.032 -0.252,0.073 -0.372,0.129 -0.029,0.012 -0.214,0.113 -0.56,0.307 -0.269,-0.102 -0.574,-0.151 -0.905,-0.151 -0.639,0 -1.142,0.159 -1.503,0.471 -0.363,0.317 -0.545,0.758 -0.545,1.328 0,0.567 0.185,1.008 0.548,1.324 0.363,0.317 0.856,0.471 1.48,0.471 0.615,0 1.107,-0.154 1.47,-0.471 C 1.014,1.914 1.195,1.477 1.195,0.91 1.195,0.611 1.143,0.348 1.043,0.119 0.967,-0.055 0.844,-0.223 0.677,-0.383" />
        </g>
        <g
           transform="translate(372.5103,290.0088)"
           id="g104">
          <path
             id="path106"
             style="fill:#231f20;fill-opacity:1;fill-rule:nonzero;stroke:none"
             d="m 0,0 h 0.838 v -1.887 c 0,-0.299 0.012,-0.492 0.032,-0.582 0.038,-0.142 0.123,-0.256 0.255,-0.344 0.138,-0.085 0.322,-0.128 0.557,-0.128 0.237,0 0.413,0.043 0.536,0.123 0.123,0.082 0.193,0.181 0.22,0.3 0.023,0.12 0.035,0.315 0.035,0.59 V 0 H 3.311 V -1.828 C 3.311,-2.244 3.287,-2.541 3.243,-2.711 3.199,-2.885 3.114,-3.029 2.991,-3.146 2.874,-3.266 2.707,-3.363 2.505,-3.434 2.303,-3.5 2.036,-3.537 1.705,-3.537 1.31,-3.537 1.011,-3.498 0.803,-3.42 0.601,-3.346 0.437,-3.246 0.316,-3.123 0.202,-3 0.123,-2.871 0.082,-2.736 0.026,-2.537 0,-2.244 0,-1.855 Z" />
        </g>
        <path
           id="path108"
           style="fill:#231f20;fill-opacity:1;fill-rule:nonzero;stroke:none"
           d="m 379.855,290.009 h 0.838 v -3.475 h -0.838 z" />
        <g
           transform="translate(385.6001,286.5342)"
           id="g110">
          <path
             id="path112"
             style="fill:#231f20;fill-opacity:1;fill-rule:nonzero;stroke:none"
             d="M 0,0 V 2.887 H -1.23 V 3.475 H 2.065 V 2.887 H 0.838 V 0 Z" />
        </g>
        <g
           transform="translate(391.3862,286.5342)"
           id="g114">
          <path
             id="path116"
             style="fill:#231f20;fill-opacity:1;fill-rule:nonzero;stroke:none"
             d="M 0,0 V 3.475 H 3.088 V 2.887 H 0.838 V 2.117 H 2.93 V 1.527 H 0.838 V 0.586 H 3.164 V 0 Z" />
        </g>
        <g
           transform="translate(399.3696,286.5342)"
           id="g118">
          <path
             id="path120"
             style="fill:#231f20;fill-opacity:1;fill-rule:nonzero;stroke:none"
             d="m 0,0 v 2.887 h -1.225 v 0.588 h 3.29 V 2.887 H 0.838 V 0 Z" />
        </g>
        <g
           transform="translate(405.7446,288.2705)"
           id="g122">
          <path
             id="path124"
             style="fill:#231f20;fill-opacity:1;fill-rule:nonzero;stroke:none"
             d="m 0,0 c 0,-0.393 0.108,-0.693 0.328,-0.896 0.217,-0.206 0.492,-0.307 0.832,-0.307 0.334,0 0.61,0.101 0.823,0.305 0.217,0.203 0.326,0.505 0.326,0.908 0,0.398 -0.106,0.699 -0.314,0.896 C 1.784,1.102 1.503,1.197 1.16,1.197 0.812,1.197 0.53,1.102 0.319,0.902 0.105,0.703 0,0.402 0,0 m -0.864,-0.021 c 0,0.353 0.064,0.65 0.19,0.89 0.094,0.178 0.223,0.336 0.387,0.479 0.164,0.138 0.343,0.244 0.536,0.31 0.264,0.092 0.56,0.137 0.897,0.137 0.615,0 1.107,-0.156 1.473,-0.475 0.366,-0.318 0.554,-0.759 0.554,-1.326 0,-0.562 -0.185,-1 -0.551,-1.314 -0.363,-0.321 -0.85,-0.479 -1.462,-0.479 -0.621,0 -1.113,0.158 -1.476,0.475 -0.364,0.314 -0.548,0.75 -0.548,1.303" />
        </g>
        <g
           transform="translate(412.5298,287.665)"
           id="g126">
          <path
             id="path128"
             style="fill:#231f20;fill-opacity:1;fill-rule:nonzero;stroke:none"
             d="m 0,0 0.823,0.07 c 0.047,-0.232 0.144,-0.398 0.296,-0.508 0.152,-0.107 0.352,-0.16 0.607,-0.16 0.269,0 0.471,0.049 0.612,0.143 0.135,0.098 0.202,0.209 0.202,0.338 0,0.082 -0.029,0.148 -0.088,0.211 C 2.399,0.148 2.3,0.199 2.153,0.24 2.054,0.27 1.831,0.322 1.482,0.393 1.031,0.486 0.721,0.6 0.539,0.738 0.281,0.928 0.155,1.16 0.155,1.434 0.155,1.611 0.217,1.775 0.337,1.93 0.454,2.086 0.63,2.201 0.853,2.281 1.078,2.361 1.351,2.4 1.67,2.4 2.188,2.4 2.581,2.309 2.842,2.115 3.108,1.924 3.246,1.67 3.258,1.348 L 2.42,1.32 C 2.382,1.502 2.309,1.627 2.191,1.703 2.074,1.785 1.896,1.824 1.661,1.824 1.418,1.824 1.228,1.781 1.093,1.699 1.002,1.643 0.958,1.572 0.958,1.482 0.958,1.4 0.999,1.33 1.084,1.271 1.189,1.199 1.444,1.121 1.852,1.039 2.259,0.961 2.561,0.877 2.757,0.787 2.95,0.701 3.105,0.588 3.214,0.434 3.322,0.287 3.378,0.104 3.378,-0.117 3.378,-0.318 3.313,-0.504 3.182,-0.678 3.05,-0.852 2.859,-0.979 2.622,-1.066 2.376,-1.15 2.077,-1.193 1.714,-1.193 1.189,-1.193 0.788,-1.09 0.507,-0.891 0.223,-0.686 0.056,-0.391 0,0" />
        </g>
        <g
           transform="translate(426.5723,287.9053)"
           id="g130">
          <path
             id="path132"
             style="fill:#231f20;fill-opacity:1;fill-rule:nonzero;stroke:none"
             d="M 0,0 -0.58,1.289 -1.137,0 Z M 1.543,-1.371 H 0.641 l -0.36,0.785 h -1.674 l -0.339,-0.785 h -0.903 l 1.604,3.475 h 0.896 z" />
        </g>
        <g
           transform="translate(431.5137,287.665)"
           id="g134">
          <path
             id="path136"
             style="fill:#231f20;fill-opacity:1;fill-rule:nonzero;stroke:none"
             d="m 0,0 0.824,0.07 c 0.047,-0.232 0.147,-0.398 0.299,-0.508 0.148,-0.107 0.352,-0.16 0.606,-0.16 0.269,0 0.474,0.049 0.609,0.143 0.139,0.098 0.205,0.209 0.205,0.338 0,0.082 -0.029,0.148 -0.084,0.211 C 2.4,0.148 2.301,0.199 2.156,0.24 2.057,0.27 1.834,0.322 1.486,0.393 1.035,0.486 0.725,0.6 0.539,0.738 0.285,0.928 0.158,1.16 0.158,1.434 0.158,1.611 0.217,1.775 0.338,1.93 0.455,2.086 0.631,2.201 0.855,2.281 1.082,2.361 1.352,2.4 1.67,2.4 2.191,2.4 2.582,2.309 2.848,2.115 3.111,1.924 3.246,1.67 3.258,1.348 L 2.42,1.32 C 2.385,1.502 2.309,1.627 2.191,1.703 2.074,1.785 1.898,1.824 1.664,1.824 1.422,1.824 1.234,1.781 1.094,1.699 1.008,1.643 0.961,1.572 0.961,1.482 0.961,1.4 1.002,1.33 1.088,1.271 1.189,1.199 1.447,1.121 1.855,1.039 2.26,0.961 2.564,0.877 2.76,0.787 2.953,0.701 3.105,0.588 3.215,0.434 3.328,0.287 3.381,0.104 3.381,-0.117 3.381,-0.318 3.316,-0.504 3.182,-0.678 3.051,-0.852 2.863,-0.979 2.623,-1.066 2.379,-1.15 2.078,-1.193 1.721,-1.193 1.193,-1.193 0.789,-1.09 0.508,-0.891 0.223,-0.686 0.057,-0.391 0,0" />
        </g>
        <g
           transform="translate(438.5664,287.665)"
           id="g138">
          <path
             id="path140"
             style="fill:#231f20;fill-opacity:1;fill-rule:nonzero;stroke:none"
             d="m 0,0 0.82,0.07 c 0.049,-0.232 0.147,-0.398 0.299,-0.508 0.147,-0.107 0.352,-0.16 0.606,-0.16 0.269,0 0.472,0.049 0.609,0.143 0.139,0.098 0.205,0.209 0.205,0.338 0,0.082 -0.029,0.148 -0.088,0.211 C 2.393,0.148 2.293,0.199 2.152,0.24 2.053,0.27 1.83,0.322 1.482,0.393 1.031,0.486 0.715,0.6 0.535,0.738 0.281,0.928 0.154,1.16 0.154,1.434 0.154,1.611 0.213,1.775 0.336,1.93 0.453,2.086 0.627,2.201 0.852,2.281 1.078,2.361 1.348,2.4 1.666,2.4 2.188,2.4 2.578,2.309 2.842,2.115 3.107,1.924 3.242,1.67 3.258,1.348 L 2.416,1.32 C 2.381,1.502 2.305,1.627 2.188,1.703 2.068,1.785 1.895,1.824 1.66,1.824 1.418,1.824 1.227,1.781 1.09,1.699 1.002,1.643 0.957,1.572 0.957,1.482 0.957,1.4 0.998,1.33 1.084,1.271 1.189,1.199 1.443,1.121 1.854,1.039 2.258,0.961 2.561,0.877 2.756,0.787 2.949,0.701 3.102,0.588 3.213,0.434 3.322,0.287 3.377,0.104 3.377,-0.117 3.377,-0.318 3.313,-0.504 3.182,-0.678 3.047,-0.852 2.859,-0.979 2.615,-1.066 2.375,-1.15 2.076,-1.193 1.711,-1.193 1.189,-1.193 0.787,-1.09 0.504,-0.891 0.223,-0.686 0.055,-0.391 0,0" />
        </g>
        <g
           transform="translate(446.5195,288.2705)"
           id="g142">
          <path
             id="path144"
             style="fill:#231f20;fill-opacity:1;fill-rule:nonzero;stroke:none"
             d="m 0,0 c 0,-0.393 0.109,-0.693 0.328,-0.896 0.217,-0.206 0.492,-0.307 0.83,-0.307 0.336,0 0.612,0.101 0.828,0.305 0.215,0.203 0.323,0.505 0.323,0.908 0,0.398 -0.106,0.699 -0.313,0.896 C 1.785,1.102 1.506,1.197 1.158,1.197 0.813,1.197 0.531,1.102 0.32,0.902 0.105,0.703 0,0.402 0,0 m -0.863,-0.021 c 0,0.353 0.064,0.65 0.189,0.89 0.098,0.178 0.227,0.336 0.387,0.479 0.164,0.138 0.346,0.244 0.539,0.31 C 0.51,1.75 0.809,1.795 1.148,1.795 1.762,1.795 2.254,1.639 2.619,1.32 2.988,1.002 3.17,0.561 3.17,-0.006 3.17,-0.568 2.992,-1.006 2.625,-1.32 2.26,-1.641 1.773,-1.799 1.16,-1.799 c -0.617,0 -1.113,0.158 -1.476,0.475 -0.364,0.314 -0.547,0.75 -0.547,1.303" />
        </g>
        <g
           transform="translate(456.1914,287.8018)"
           id="g146">
          <path
             id="path148"
             style="fill:#231f20;fill-opacity:1;fill-rule:nonzero;stroke:none"
             d="M 0,0 0.814,-0.209 C 0.686,-0.584 0.48,-0.869 0.189,-1.051 -0.1,-1.236 -0.473,-1.33 -0.918,-1.33 c -0.553,0 -1.008,0.158 -1.365,0.475 -0.358,0.314 -0.533,0.744 -0.533,1.293 0,0.578 0.179,1.027 0.537,1.349 0.357,0.32 0.828,0.477 1.414,0.477 0.51,0 0.926,-0.123 1.242,-0.375 C 0.568,1.744 0.709,1.533 0.805,1.256 L -0.027,1.092 c -0.047,0.178 -0.149,0.318 -0.307,0.422 -0.156,0.105 -0.35,0.152 -0.572,0.152 -0.313,0 -0.565,-0.09 -0.758,-0.275 -0.193,-0.186 -0.291,-0.489 -0.291,-0.903 0,-0.441 0.098,-0.754 0.287,-0.941 0.191,-0.188 0.439,-0.281 0.742,-0.281 0.223,0 0.418,0.06 0.58,0.177 C -0.186,-0.438 -0.068,-0.254 0,0" />
        </g>
        <path
           id="path150"
           style="fill:#231f20;fill-opacity:1;fill-rule:nonzero;stroke:none"
           d="m 460.863,290.009 h 0.842 v -3.475 h -0.842 z" />
        <g
           transform="translate(467.8867,287.9053)"
           id="g152">
          <path
             id="path154"
             style="fill:#231f20;fill-opacity:1;fill-rule:nonzero;stroke:none"
             d="M 0,0 -0.58,1.289 -1.137,0 Z M 1.541,-1.371 H 0.639 l -0.362,0.785 h -1.67 l -0.341,-0.785 h -0.901 l 1.6,3.475 h 0.9 z" />
        </g>
        <g
           transform="translate(473.8828,289.4209)"
           id="g156">
          <path
             id="path158"
             style="fill:#231f20;fill-opacity:1;fill-rule:nonzero;stroke:none"
             d="m 0,0 v -2.301 h 0.631 c 0.23,0 0.4,0.008 0.504,0.031 0.14,0.03 0.252,0.077 0.342,0.147 0.091,0.066 0.162,0.18 0.22,0.334 0.055,0.156 0.084,0.367 0.084,0.635 0,0.267 -0.029,0.474 -0.084,0.619 -0.058,0.144 -0.138,0.254 -0.24,0.336 -0.103,0.08 -0.232,0.133 -0.391,0.164 C 0.953,-0.012 0.721,0 0.379,0 Z M -0.838,0.588 H 0.697 C 1.041,0.588 1.307,0.564 1.486,0.52 1.732,0.459 1.939,0.352 2.113,0.201 2.285,0.045 2.418,-0.143 2.508,-0.363 2.602,-0.586 2.646,-0.859 2.646,-1.186 2.646,-1.469 2.605,-1.719 2.518,-1.924 2.414,-2.18 2.266,-2.381 2.072,-2.535 1.928,-2.654 1.732,-2.748 1.482,-2.816 1.295,-2.863 1.053,-2.887 0.742,-2.887 h -1.58 z" />
        </g>
        <g
           transform="translate(481.1055,288.2705)"
           id="g160">
          <path
             id="path162"
             style="fill:#231f20;fill-opacity:1;fill-rule:nonzero;stroke:none"
             d="m 0,0 c 0,-0.393 0.111,-0.693 0.328,-0.896 0.217,-0.206 0.494,-0.307 0.832,-0.307 0.336,0 0.61,0.101 0.826,0.305 0.213,0.203 0.325,0.505 0.325,0.908 0,0.398 -0.106,0.699 -0.317,0.896 C 1.787,1.102 1.508,1.197 1.16,1.197 0.811,1.197 0.533,1.102 0.318,0.902 0.105,0.703 0,0.402 0,0 m -0.865,-0.021 c 0,0.353 0.064,0.65 0.191,0.89 0.094,0.178 0.223,0.336 0.387,0.479 0.164,0.138 0.346,0.244 0.539,0.31 0.26,0.092 0.557,0.137 0.898,0.137 0.614,0 1.102,-0.156 1.469,-0.475 0.369,-0.318 0.557,-0.759 0.557,-1.326 0,-0.562 -0.186,-1 -0.551,-1.314 -0.367,-0.321 -0.854,-0.479 -1.465,-0.479 -0.619,0 -1.107,0.158 -1.476,0.475 -0.364,0.314 -0.549,0.75 -0.549,1.303" />
        </g>
        <g
           transform="translate(487.8926,287.665)"
           id="g164">
          <path
             id="path166"
             style="fill:#231f20;fill-opacity:1;fill-rule:nonzero;stroke:none"
             d="m 0,0 0.818,0.07 c 0.053,-0.232 0.153,-0.398 0.299,-0.508 0.153,-0.107 0.354,-0.16 0.61,-0.16 0.269,0 0.47,0.049 0.609,0.143 0.135,0.098 0.205,0.209 0.205,0.338 0,0.082 -0.029,0.148 -0.088,0.211 C 2.396,0.148 2.297,0.199 2.154,0.24 2.051,0.27 1.832,0.322 1.482,0.393 1.031,0.486 0.719,0.6 0.533,0.738 0.285,0.928 0.156,1.16 0.156,1.434 0.156,1.611 0.215,1.775 0.334,1.93 0.455,2.086 0.625,2.201 0.854,2.281 1.076,2.361 1.352,2.4 1.664,2.4 2.189,2.4 2.582,2.309 2.842,2.115 3.105,1.924 3.244,1.67 3.258,1.348 L 2.42,1.32 C 2.385,1.502 2.307,1.627 2.189,1.703 2.072,1.785 1.896,1.824 1.662,1.824 1.418,1.824 1.229,1.781 1.094,1.699 1.002,1.643 0.955,1.572 0.955,1.482 0.955,1.4 1,1.33 1.082,1.271 1.188,1.199 1.445,1.121 1.85,1.039 2.26,0.961 2.559,0.877 2.754,0.787 2.951,0.701 3.104,0.588 3.211,0.434 3.326,0.287 3.381,0.104 3.381,-0.117 3.381,-0.318 3.314,-0.504 3.18,-0.678 3.045,-0.852 2.863,-0.979 2.617,-1.066 2.373,-1.15 2.074,-1.193 1.715,-1.193 1.189,-1.193 0.785,-1.09 0.502,-0.891 0.223,-0.686 0.053,-0.391 0,0" />
        </g>
        <g
           transform="translate(389.0171,301.0903)"
           id="g168">
          <path
             id="path170"
             style="fill:#d81920;fill-opacity:1;fill-rule:nonzero;stroke:none"
             d="m 0,0 5.757,0.979 c 0,0.035 0.011,0.068 0.011,0.104 0,1.97 -0.914,3.709 -2.319,4.879 z" />
        </g>
        <g
           transform="translate(387.2944,302.0825)"
           id="g172">
          <path
             id="path174"
             style="fill:#d81920;fill-opacity:1;fill-rule:nonzero;stroke:none"
             d="M 0,0 3.472,6.002 C 2.741,6.294 1.949,6.465 1.115,6.465 -0.05,6.465 -1.129,6.128 -2.069,5.581 Z" />
        </g>
        <g
           transform="translate(386.0024,299.8481)"
           id="g176">
          <path
             id="path178"
             style="fill:#d81920;fill-opacity:1;fill-rule:nonzero;stroke:none"
             d="M 0,0 -2.399,6.469 C -3.363,5.352 -3.968,3.915 -3.968,2.325 c 0,-2.024 0.962,-3.806 2.433,-4.973 z" />
        </g>
        <g
           transform="translate(387.7241,298.854)"
           id="g180">
          <path
             id="path182"
             style="fill:#d81920;fill-opacity:1;fill-rule:nonzero;stroke:none"
             d="m 0,0 -0.825,-1.426 v 0.003 l -0.704,-1.215 c 0.692,-0.258 1.432,-0.418 2.215,-0.418 2.749,0 5.069,1.747 5.964,4.186 z" />
        </g>
      </g>
    </g>
  </g>
</svg>
